# xmcd CD database file
#
# Track frame offsets:
#	150
#	25871
#	42942
#	55211
#	67609
#	91198
#	122105
#	145808
#
# Disc length: 2287 seconds
#
# Revision: 0
# Processed by: cddbd v1.5.2PL0 Copyright (c) Steve Scherf et al.
# Submitted via: CDex 1.51
#
DISCID=6108ed08
DTITLE=Dave Pike Set - Four Reasons
DYEAR=1900
DGENRE=Jazz
TTITLE0=Greater Kalesh No:48
TTITLE1=Professor Porno's Romance
TTITLE2=Cornflower Girl
TTITLE3=The Seventh Day
TTITLE4=Turn Around Mrs. Lot
TTITLE5=Goodtime Charlie At The Big Washdown
TTITLE6=A Nose Opener
TTITLE7=a) Four Reasons, b) Sitting On My Knees
EXTD=
EXTT0=
EXTT1=
EXTT2=
EXTT3=
EXTT4=
EXTT5=
EXTT6=
EXTT7=
PLAYORDER=
